<svg xmlns="http://www.w3.org/2000/svg" xmlns:xlink="http://www.w3.org/1999/xlink" width="361" zoomAndPan="magnify" viewBox="0 0 270.75 73.499998" height="98" preserveAspectRatio="xMidYMid meet" version="1.0"><defs><g/><clipPath id="8f44ca4d4d"><path d="M 28.675781 7.300781 L 68 7.300781 L 68 47 L 28.675781 47 Z M 28.675781 7.300781 " clip-rule="nonzero"/></clipPath><clipPath id="bfc692ca1c"><path d="M 64 42 L 86.78125 42 L 86.78125 65.40625 L 64 65.40625 Z M 64 42 " clip-rule="nonzero"/></clipPath></defs><path fill="#90a4ae" d="M 58.09375 40.28125 L 61.648438 36.726562 L 69.722656 44.800781 L 66.167969 48.359375 Z M 58.09375 40.28125 " fill-opacity="1" fill-rule="nonzero"/><path fill="#bbdefb" d="M 65.066406 26.828125 C 65.066406 27.378906 65.039062 27.929688 64.984375 28.480469 C 64.929688 29.027344 64.851562 29.574219 64.742188 30.117188 C 64.632812 30.65625 64.5 31.191406 64.339844 31.722656 C 64.179688 32.25 63.992188 32.769531 63.78125 33.28125 C 63.570312 33.789062 63.335938 34.289062 63.074219 34.777344 C 62.8125 35.261719 62.53125 35.734375 62.222656 36.195312 C 61.917969 36.65625 61.589844 37.097656 61.238281 37.523438 C 60.886719 37.953125 60.515625 38.359375 60.125 38.75 C 59.734375 39.140625 59.328125 39.511719 58.902344 39.863281 C 58.472656 40.210938 58.03125 40.539062 57.570312 40.847656 C 57.113281 41.15625 56.640625 41.4375 56.152344 41.699219 C 55.664062 41.957031 55.167969 42.195312 54.65625 42.40625 C 54.144531 42.617188 53.625 42.804688 53.097656 42.964844 C 52.570312 43.125 52.035156 43.257812 51.492188 43.367188 C 50.949219 43.472656 50.40625 43.554688 49.855469 43.609375 C 49.304688 43.664062 48.753906 43.691406 48.203125 43.691406 C 47.648438 43.691406 47.097656 43.664062 46.550781 43.609375 C 46 43.554688 45.453125 43.472656 44.914062 43.367188 C 44.371094 43.257812 43.835938 43.125 43.308594 42.964844 C 42.777344 42.804688 42.257812 42.617188 41.75 42.40625 C 41.238281 42.195312 40.742188 41.957031 40.253906 41.699219 C 39.765625 41.4375 39.292969 41.15625 38.832031 40.847656 C 38.375 40.539062 37.929688 40.210938 37.503906 39.863281 C 37.078125 39.511719 36.667969 39.140625 36.277344 38.75 C 35.886719 38.359375 35.515625 37.953125 35.167969 37.523438 C 34.816406 37.097656 34.488281 36.65625 34.179688 36.195312 C 33.875 35.734375 33.589844 35.261719 33.332031 34.777344 C 33.070312 34.289062 32.835938 33.789062 32.621094 33.28125 C 32.410156 32.769531 32.226562 32.25 32.066406 31.722656 C 31.90625 31.191406 31.769531 30.65625 31.664062 30.117188 C 31.554688 29.574219 31.472656 29.027344 31.421875 28.480469 C 31.367188 27.929688 31.339844 27.378906 31.339844 26.828125 C 31.339844 26.273438 31.367188 25.722656 31.421875 25.171875 C 31.472656 24.625 31.554688 24.078125 31.664062 23.535156 C 31.769531 22.996094 31.90625 22.460938 32.066406 21.929688 C 32.226562 21.402344 32.410156 20.882812 32.621094 20.371094 C 32.835938 19.863281 33.070312 19.363281 33.332031 18.878906 C 33.589844 18.390625 33.875 17.917969 34.179688 17.457031 C 34.488281 17 34.816406 16.554688 35.167969 16.128906 C 35.515625 15.703125 35.886719 15.292969 36.277344 14.902344 C 36.667969 14.511719 37.078125 14.140625 37.503906 13.789062 C 37.929688 13.441406 38.375 13.113281 38.832031 12.804688 C 39.292969 12.5 39.765625 12.214844 40.253906 11.953125 C 40.742188 11.695312 41.238281 11.457031 41.75 11.246094 C 42.257812 11.035156 42.777344 10.847656 43.308594 10.6875 C 43.835938 10.527344 44.371094 10.394531 44.914062 10.285156 C 45.453125 10.179688 46 10.097656 46.550781 10.042969 C 47.097656 9.988281 47.648438 9.964844 48.203125 9.964844 C 48.753906 9.964844 49.304688 9.988281 49.855469 10.042969 C 50.40625 10.097656 50.949219 10.179688 51.492188 10.285156 C 52.035156 10.394531 52.570312 10.527344 53.097656 10.6875 C 53.625 10.847656 54.144531 11.035156 54.65625 11.246094 C 55.167969 11.457031 55.664062 11.695312 56.152344 11.953125 C 56.640625 12.214844 57.113281 12.5 57.570312 12.804688 C 58.03125 13.113281 58.472656 13.441406 58.902344 13.789062 C 59.328125 14.140625 59.734375 14.511719 60.125 14.902344 C 60.515625 15.292969 60.886719 15.703125 61.238281 16.128906 C 61.589844 16.554688 61.917969 17 62.222656 17.457031 C 62.53125 17.917969 62.8125 18.390625 63.074219 18.878906 C 63.335938 19.363281 63.570312 19.863281 63.78125 20.371094 C 63.992188 20.882812 64.179688 21.402344 64.339844 21.929688 C 64.5 22.460938 64.632812 22.996094 64.742188 23.535156 C 64.851562 24.078125 64.929688 24.625 64.984375 25.171875 C 65.039062 25.722656 65.066406 26.273438 65.066406 26.828125 Z M 65.066406 26.828125 " fill-opacity="1" fill-rule="nonzero"/><path fill="#ffffff" d="M 48.203125 15.585938 C 53.824219 15.585938 58.972656 18.777344 61.457031 23.867188 C 59.859375 16.53125 52.582031 11.914062 45.242188 13.574219 C 40.097656 14.695312 36.074219 18.71875 34.949219 23.867188 C 37.433594 18.777344 42.582031 15.585938 48.203125 15.585938 Z M 48.203125 15.585938 " fill-opacity="1" fill-rule="nonzero"/><g clip-path="url(#8f44ca4d4d)"><path fill="#90a4ae" d="M 48.203125 46.351562 C 37.433594 46.351562 28.675781 37.59375 28.675781 26.828125 C 28.675781 16.058594 37.433594 7.300781 48.203125 7.300781 C 58.972656 7.300781 67.730469 16.058594 67.730469 26.828125 C 67.730469 37.59375 58.972656 46.351562 48.203125 46.351562 Z M 48.203125 10.851562 C 39.386719 10.851562 32.226562 18.011719 32.226562 26.828125 C 32.226562 35.644531 39.386719 42.800781 48.203125 42.800781 C 57.019531 42.800781 64.179688 35.644531 64.179688 26.828125 C 64.179688 18.011719 57.019531 10.851562 48.203125 10.851562 Z M 48.203125 10.851562 " fill-opacity="1" fill-rule="nonzero"/></g><g clip-path="url(#bfc692ca1c)"><path fill="#37474f" d="M 86.25 58.246094 L 69.445312 43.097656 C 68.972656 42.683594 68.203125 42.683594 67.730469 43.15625 L 64.535156 46.351562 C 64.058594 46.824219 64.058594 47.59375 64.472656 48.066406 L 79.621094 64.871094 C 80.09375 65.40625 80.863281 65.40625 81.398438 64.992188 C 81.398438 64.992188 81.457031 64.933594 81.457031 64.933594 L 86.308594 60.078125 C 86.78125 59.546875 86.78125 58.777344 86.25 58.246094 C 86.308594 58.304688 86.25 58.246094 86.25 58.246094 Z M 86.25 58.246094 " fill-opacity="1" fill-rule="nonzero"/></g><path fill="#b0bec5" d="M 61.457031 43.867188 C 61.277344 43.867188 61.160156 43.75 61.160156 43.570312 C 61.160156 43.511719 61.21875 43.394531 61.21875 43.335938 L 64.769531 39.785156 C 64.886719 39.667969 65.066406 39.667969 65.183594 39.785156 C 65.300781 39.902344 65.300781 40.082031 65.183594 40.199219 L 61.632812 43.75 C 61.574219 43.808594 61.515625 43.867188 61.457031 43.867188 Z M 61.457031 43.867188 " fill-opacity="1" fill-rule="nonzero"/><path fill="#b0bec5" d="M 63.765625 46.765625 C 63.289062 46.765625 62.875 46.351562 62.875 45.878906 C 62.875 45.640625 62.996094 45.40625 63.113281 45.226562 L 66.664062 41.679688 C 67.019531 41.324219 67.550781 41.324219 67.90625 41.679688 C 68.261719 42.03125 68.261719 42.566406 67.90625 42.921875 L 64.355469 46.472656 C 64.238281 46.707031 64 46.765625 63.765625 46.765625 Z M 63.765625 46.765625 " fill-opacity="1" fill-rule="nonzero"/><path stroke-linecap="butt" transform="matrix(0.144886, 0, 0, 0.144886, 98.363607, 34.460521)" fill="none" stroke-linejoin="miter" d="M 80.04465 50.716319 L 9.137498 50.716319 L 9.137498 151.010847 L 30.00523 151.010847 L 30.00523 109.464108 L 73.681879 109.464108 L 73.681879 90.83413 L 30.00523 90.83413 L 30.00523 69.265415 L 80.04465 69.265415 Z M 148.336596 151.010847 L 148.336596 50.716319 L 127.495825 50.716319 L 127.495825 151.010847 Z M 264.430208 94.662577 C 264.430208 101.67241 264.565012 108.870969 264.699817 115.907762 C 261.46451 110.272935 258.094398 104.799874 254.589482 99.165047 L 224.68985 50.716319 L 204.253491 50.716319 L 204.253491 151.010847 L 225.094263 151.010847 L 225.094263 107.037628 C 225.094263 100.135639 225.094263 92.93708 224.959458 85.927248 C 228.518297 91.831683 232.023213 97.76308 235.689894 103.667516 L 264.861582 151.010847 L 285.270979 151.010847 L 285.270979 50.716319 L 264.430208 50.716319 Z M 373.918401 50.716319 L 341.187875 50.716319 L 341.187875 151.010847 L 376.695373 151.010847 C 410.800904 151.010847 425.73724 130.170075 425.73724 100.135639 C 425.73724 70.128163 411.501888 50.716319 373.918401 50.716319 Z M 362.028646 133.378422 L 362.028646 67.593839 L 371.923294 67.593839 C 397.563105 67.593839 404.896468 79.160063 404.896468 100.863583 C 404.896468 122.701908 396.835161 133.378422 374.727227 133.378422 Z M 497.857633 108.169985 L 544.769589 108.169985 L 544.769589 89.566968 L 497.857633 89.566968 L 497.857633 69.265415 L 550.000003 69.265415 L 550.000003 50.716319 L 476.9899 50.716319 L 476.9899 151.010847 L 551.401969 151.010847 L 551.401969 132.380869 L 497.857633 132.380869 Z M 663.127916 102.804767 C 675.90738 99.434656 682.270151 91.1307 682.270151 78.297314 C 682.270151 64.088923 674.505413 50.716319 650.564139 50.716319 L 603.786987 50.716319 L 603.786987 151.010847 L 624.627759 151.010847 L 624.627759 112.133237 L 643.095971 112.133237 C 653.934251 112.133237 657.493089 116.635706 658.301916 125.209271 L 660.701435 151.010847 L 682.135347 151.010847 L 678.037291 119.14307 C 677.201503 112.53765 674.801983 105.231248 663.127916 102.804767 Z M 624.627759 68.186979 L 647.463636 68.186979 C 657.762698 68.186979 661.860754 73.794845 661.860754 81.101247 C 661.860754 88.892946 657.196519 95.201795 644.659703 95.201795 L 624.627759 95.201795 Z M 624.627759 68.186979 " stroke="#000000" stroke-width="10.566075" stroke-opacity="1" stroke-miterlimit="4"/><g fill="#c1e09f" fill-opacity="1"><g transform="translate(98.363607, 56.338272)"><g><path d="M 11.59375 -14.53125 L 1.328125 -14.53125 L 1.328125 0 L 4.347656 0 L 4.347656 -6.019531 L 10.675781 -6.019531 L 10.675781 -8.714844 L 4.347656 -8.714844 L 4.347656 -11.839844 L 11.59375 -11.839844 Z M 11.59375 -14.53125 "/></g></g></g><g fill="#c1e09f" fill-opacity="1"><g transform="translate(115.508905, 56.338272)"><g><path d="M 4.347656 0 L 4.347656 -14.53125 L 1.328125 -14.53125 L 1.328125 0 Z M 4.347656 0 "/></g></g></g><g fill="#c1e09f" fill-opacity="1"><g transform="translate(126.633019, 56.338272)"><g><path d="M 10.042969 -8.164062 C 10.042969 -7.144531 10.0625 -6.101562 10.082031 -5.082031 C 9.613281 -5.898438 9.125 -6.695312 8.613281 -7.511719 L 4.285156 -14.53125 L 1.328125 -14.53125 L 1.328125 0 L 4.347656 0 L 4.347656 -6.367188 C 4.347656 -7.367188 4.347656 -8.410156 4.328125 -9.429688 C 4.835938 -8.574219 5.347656 -7.714844 5.878906 -6.859375 L 10.105469 0 L 13.0625 0 L 13.0625 -14.53125 L 10.042969 -14.53125 Z M 10.042969 -8.164062 "/></g></g></g><g fill="#c1e09f" fill-opacity="1"><g transform="translate(146.47254, 56.338272)"><g><path d="M 6.0625 -14.53125 L 1.328125 -14.53125 L 1.328125 0 L 6.46875 0 C 11.410156 0 13.574219 -3.019531 13.574219 -7.367188 C 13.574219 -11.714844 11.511719 -14.53125 6.0625 -14.53125 Z M 4.347656 -2.550781 L 4.347656 -12.082031 L 5.777344 -12.082031 C 9.492188 -12.082031 10.554688 -10.410156 10.554688 -7.265625 C 10.554688 -4.101562 9.390625 -2.550781 6.183594 -2.550781 Z M 4.347656 -2.550781 "/></g></g></g><g fill="#c1e09f" fill-opacity="1"><g transform="translate(166.148778, 56.338272)"><g><path d="M 4.347656 -6.207031 L 11.144531 -6.207031 L 11.144531 -8.898438 L 4.347656 -8.898438 L 4.347656 -11.839844 L 11.898438 -11.839844 L 11.898438 -14.53125 L 1.328125 -14.53125 L 1.328125 0 L 12.105469 0 L 12.105469 -2.695312 L 4.347656 -2.695312 Z M 4.347656 -6.207031 "/></g></g></g><g fill="#c1e09f" fill-opacity="1"><g transform="translate(184.518723, 56.338272)"><g><path d="M 9.921875 -6.980469 C 11.777344 -7.46875 12.695312 -8.675781 12.695312 -10.53125 C 12.695312 -12.59375 11.574219 -14.53125 8.101562 -14.53125 L 1.328125 -14.53125 L 1.328125 0 L 4.347656 0 L 4.347656 -5.632812 L 7.023438 -5.632812 C 8.59375 -5.632812 9.105469 -4.980469 9.226562 -3.734375 L 9.574219 0 L 12.675781 0 L 12.082031 -4.613281 C 11.960938 -5.574219 11.613281 -6.632812 9.921875 -6.980469 Z M 4.347656 -12.003906 L 7.65625 -12.003906 C 9.144531 -12.003906 9.734375 -11.183594 9.734375 -10.125 C 9.734375 -9 9.0625 -8.082031 7.246094 -8.082031 L 4.347656 -8.082031 Z M 4.347656 -12.003906 "/></g></g></g><path stroke-linecap="butt" transform="matrix(0.197929, 0, 0, 0.197929, 93.522011, 6.988358)" fill="none" stroke-linejoin="miter" d="M 82.679629 78.231523 L 47.846298 78.231523 L 47.846298 43.773168 L 29.294835 43.773168 L 29.294835 132.997808 L 47.846298 132.997808 L 47.846298 94.78969 L 82.679629 94.78969 L 82.679629 132.997808 L 101.231091 132.997808 L 101.231091 43.773168 L 82.679629 43.773168 Z M 189.350537 135.879206 C 213.171404 135.879206 231.959694 117.20933 231.959694 88.257207 C 231.959694 59.443233 213.171404 41.641724 189.350537 41.641724 C 165.52967 41.641724 147.234771 59.443233 147.234771 88.257207 C 147.234771 117.327743 165.52967 135.879206 189.350537 135.879206 Z M 189.350537 119.834164 C 174.667252 119.834164 165.805969 107.183646 165.805969 88.257207 C 165.805969 70.080721 174.667252 57.66703 189.350537 57.66703 C 204.014087 57.66703 213.408232 69.962307 213.408232 88.257207 C 213.408232 107.183646 204.014087 119.834164 189.350537 119.834164 Z M 189.350537 119.834164 " stroke="#000000" stroke-width="9.399975" stroke-opacity="1" stroke-miterlimit="4"/><path stroke-linecap="butt" transform="matrix(0.197929, 0, 0, 0.197929, 93.522011, 6.988358)" fill="none" stroke-linejoin="miter" d="M 330.736363 90.132089 C 342.123804 87.132278 347.768185 79.731428 347.768185 68.324253 C 347.768185 55.673734 340.860725 43.773168 319.566015 43.773168 L 277.943638 43.773168 L 277.943638 132.997808 L 296.4951 132.997808 L 296.4951 98.42104 L 312.934854 98.42104 C 322.565826 98.42104 325.723521 102.427366 326.453739 110.045307 L 328.585183 132.997808 L 347.649771 132.997808 L 344.018421 104.657489 C 343.248733 98.796016 341.137024 92.283269 330.736363 90.132089 Z M 296.4951 59.32482 L 316.803031 59.32482 C 325.960349 59.32482 329.591699 64.298191 329.591699 70.830674 C 329.591699 77.738133 325.466959 83.362779 314.29661 83.362779 L 296.4951 83.362779 Z M 414.810012 94.908104 L 456.550803 94.908104 L 456.550803 78.349937 L 414.810012 78.349937 L 414.810012 60.291864 L 461.188668 60.291864 L 461.188668 43.773168 L 396.25855 43.773168 L 396.25855 132.997808 L 462.451746 132.997808 L 462.451746 116.439641 L 414.810012 116.439641 Z M 414.810012 94.908104 " stroke="#000000" stroke-width="9.399975" stroke-opacity="1" stroke-miterlimit="4"/><path stroke-linecap="butt" transform="matrix(0.197929, 0, 0, 0.197929, 93.522011, 6.988358)" fill="none" stroke-linejoin="miter" d="M 546.781958 135.879206 C 568.491116 135.879206 583.016516 124.215467 584.516422 103.808858 L 566.991211 103.808858 C 565.609719 112.314901 559.827188 119.834164 547.926623 119.834164 C 532.374971 119.834164 523.868928 107.183646 523.868928 88.395356 C 523.868928 70.21887 532.374971 57.785443 547.926623 57.785443 C 558.939086 57.785443 565.451834 63.94295 566.991211 73.337095 L 584.634835 73.337095 C 583.016516 53.779117 568.846357 41.760137 547.038521 41.760137 C 523.237389 41.760137 505.29773 59.561647 505.29773 88.395356 C 505.29773 117.327743 522.980826 135.879206 546.781958 135.879206 Z M 708.219152 132.997808 L 677.392147 43.773168 L 655.959288 43.773168 L 624.362595 132.997808 L 644.038986 132.997808 L 650.058344 114.466081 L 682.404989 114.466081 L 688.404611 132.997808 Z M 658.722271 88.138793 L 666.379684 62.443044 L 673.859475 88.138793 L 677.510561 99.151257 L 655.071186 99.151257 Z M 658.722271 88.138793 " stroke="#000000" stroke-width="9.399975" stroke-opacity="1" stroke-miterlimit="4"/><g fill="#efb523" fill-opacity="1"><g transform="translate(97.709449, 33.312934)"><g><path d="M 12.179688 -10.839844 L 5.285156 -10.839844 L 5.285156 -17.664062 L 1.613281 -17.664062 L 1.613281 0 L 5.285156 0 L 5.285156 -7.566406 L 12.179688 -7.566406 L 12.179688 0 L 15.851562 0 L 15.851562 -17.664062 L 12.179688 -17.664062 Z M 12.179688 -10.839844 "/></g></g></g><g fill="#efb523" fill-opacity="1"><g transform="translate(121.79641, 33.312934)"><g><path d="M 9.203125 0.570312 C 13.917969 0.570312 17.636719 -3.125 17.636719 -8.855469 C 17.636719 -14.5625 13.917969 -18.082031 9.203125 -18.082031 C 4.488281 -18.082031 0.867188 -14.5625 0.867188 -8.855469 C 0.867188 -3.101562 4.488281 0.570312 9.203125 0.570312 Z M 9.203125 -2.605469 C 6.300781 -2.605469 4.539062 -5.109375 4.539062 -8.855469 C 4.539062 -12.453125 6.300781 -14.910156 9.203125 -14.910156 C 12.105469 -14.910156 13.964844 -12.476562 13.964844 -8.855469 C 13.964844 -5.109375 12.105469 -2.605469 9.203125 -2.605469 Z M 9.203125 -2.605469 "/></g></g></g><g fill="#46ad51" fill-opacity="1"><g transform="translate(146.925767, 33.312934)"><g><path d="M 12.054688 -8.484375 C 14.3125 -9.078125 15.429688 -10.542969 15.429688 -12.800781 C 15.429688 -15.304688 14.066406 -17.664062 9.847656 -17.664062 L 1.613281 -17.664062 L 1.613281 0 L 5.285156 0 L 5.285156 -6.847656 L 8.535156 -6.847656 C 10.445312 -6.847656 11.0625 -6.054688 11.210938 -4.539062 L 11.632812 0 L 15.40625 0 L 14.683594 -5.605469 C 14.535156 -6.773438 14.113281 -8.0625 12.054688 -8.484375 Z M 5.285156 -14.585938 L 9.300781 -14.585938 C 11.113281 -14.585938 11.832031 -13.59375 11.832031 -12.304688 C 11.832031 -10.941406 11.015625 -9.824219 8.804688 -9.824219 L 5.285156 -9.824219 Z M 5.285156 -14.585938 "/></g></g></g><g fill="#46ad51" fill-opacity="1"><g transform="translate(170.342966, 33.312934)"><g><path d="M 5.285156 -7.542969 L 13.542969 -7.542969 L 13.542969 -10.816406 L 5.285156 -10.816406 L 5.285156 -14.386719 L 14.460938 -14.386719 L 14.460938 -17.664062 L 1.613281 -17.664062 L 1.613281 0 L 14.710938 0 L 14.710938 -3.273438 L 5.285156 -3.273438 Z M 5.285156 -7.542969 "/></g></g></g><g fill="#e76135" fill-opacity="1"><g transform="translate(192.669048, 33.312934)"><g><path d="M 9.078125 0.570312 C 13.371094 0.570312 16.25 -1.738281 16.546875 -5.78125 L 13.074219 -5.78125 C 12.800781 -4.09375 11.660156 -2.605469 9.300781 -2.605469 C 6.226562 -2.605469 4.539062 -5.109375 4.539062 -8.832031 C 4.539062 -12.429688 6.226562 -14.882812 9.300781 -14.882812 C 11.484375 -14.882812 12.773438 -13.667969 13.074219 -11.808594 L 16.570312 -11.808594 C 16.25 -15.675781 13.445312 -18.058594 9.128906 -18.058594 C 4.414062 -18.058594 0.867188 -14.535156 0.867188 -8.832031 C 0.867188 -3.101562 4.367188 0.570312 9.078125 0.570312 Z M 9.078125 0.570312 "/></g></g></g><g fill="#e76135" fill-opacity="1"><g transform="translate(216.483144, 33.312934)"><g><path d="M 17.214844 0 L 11.113281 -17.664062 L 6.871094 -17.664062 L 0.621094 0 L 4.515625 0 L 5.707031 -3.671875 L 12.105469 -3.671875 L 13.296875 0 Z M 7.417969 -8.878906 L 8.929688 -13.964844 L 10.417969 -8.878906 L 11.136719 -6.699219 L 6.699219 -6.699219 Z M 7.417969 -8.878906 "/></g></g></g></svg>