<svg xmlns="http://www.w3.org/2000/svg" xmlns:xlink="http://www.w3.org/1999/xlink" width="180" zoomAndPan="magnify" viewBox="0 0 135 135.000003" height="180" preserveAspectRatio="xMidYMid meet" version="1.0"><defs><clipPath id="9db3ccf0aa"><path d="M 0.496094 0 L 134.503906 0 L 134.503906 134.007812 L 0.496094 134.007812 Z M 0.496094 0 " clip-rule="nonzero"/></clipPath><clipPath id="65bbda4a07"><path d="M 6.453125 0 L 128.546875 0 C 130.128906 0 131.640625 0.628906 132.757812 1.746094 C 133.875 2.863281 134.503906 4.375 134.503906 5.957031 L 134.503906 128.050781 C 134.503906 129.632812 133.875 131.144531 132.757812 132.261719 C 131.640625 133.378906 130.128906 134.007812 128.546875 134.007812 L 6.453125 134.007812 C 4.871094 134.007812 3.359375 133.378906 2.242188 132.261719 C 1.125 131.144531 0.496094 129.632812 0.496094 128.050781 L 0.496094 5.957031 C 0.496094 4.375 1.125 2.863281 2.242188 1.746094 C 3.359375 0.628906 4.871094 0 6.453125 0 Z M 6.453125 0 " clip-rule="nonzero"/></clipPath><clipPath id="ccadc88168"><path d="M 3.820312 3.324219 L 131.179688 3.324219 L 131.179688 130.683594 L 3.820312 130.683594 Z M 3.820312 3.324219 " clip-rule="nonzero"/></clipPath><clipPath id="3e194cb73c"><path d="M 9.777344 3.324219 L 125.222656 3.324219 C 128.511719 3.324219 131.179688 5.992188 131.179688 9.28125 L 131.179688 124.726562 C 131.179688 128.015625 128.511719 130.683594 125.222656 130.683594 L 9.777344 130.683594 C 6.488281 130.683594 3.820312 128.015625 3.820312 124.726562 L 3.820312 9.28125 C 3.820312 5.992188 6.488281 3.324219 9.777344 3.324219 Z M 9.777344 3.324219 " clip-rule="nonzero"/></clipPath><clipPath id="cfec9fd888"><path d="M 3.820312 3.324219 L 56.691406 3.324219 L 56.691406 130.683594 L 3.820312 130.683594 Z M 3.820312 3.324219 " clip-rule="nonzero"/></clipPath><clipPath id="cdac396628"><path d="M 9.777344 3.324219 L 50.734375 3.324219 C 54.023438 3.324219 56.691406 5.992188 56.691406 9.28125 L 56.691406 124.726562 C 56.691406 128.015625 54.023438 130.683594 50.734375 130.683594 L 9.777344 130.683594 C 6.488281 130.683594 3.820312 128.015625 3.820312 124.726562 L 3.820312 9.28125 C 3.820312 5.992188 6.488281 3.324219 9.777344 3.324219 Z M 9.777344 3.324219 " clip-rule="nonzero"/></clipPath><clipPath id="78e301e00f"><path d="M 77.320312 3.324219 L 131.179688 3.324219 L 131.179688 130.683594 L 77.320312 130.683594 Z M 77.320312 3.324219 " clip-rule="nonzero"/></clipPath><clipPath id="855f5ee027"><path d="M 83.277344 3.324219 L 125.222656 3.324219 C 128.511719 3.324219 131.179688 5.992188 131.179688 9.28125 L 131.179688 124.726562 C 131.179688 128.015625 128.511719 130.683594 125.222656 130.683594 L 83.277344 130.683594 C 79.988281 130.683594 77.320312 128.015625 77.320312 124.726562 L 77.320312 9.28125 C 77.320312 5.992188 79.988281 3.324219 83.277344 3.324219 Z M 83.277344 3.324219 " clip-rule="nonzero"/></clipPath><clipPath id="461e20b04a"><path d="M 44.84375 3.324219 L 90.15625 3.324219 L 90.15625 130.683594 L 44.84375 130.683594 Z M 44.84375 3.324219 " clip-rule="nonzero"/></clipPath><clipPath id="ffa9bd17fa"><path d="M 16.664062 16.167969 L 86 16.167969 L 86 85 L 16.664062 85 Z M 16.664062 16.167969 " clip-rule="nonzero"/></clipPath><clipPath id="761c617c8d"><path d="M 78 78 L 118.660156 78 L 118.660156 118 L 78 118 Z M 78 78 " clip-rule="nonzero"/></clipPath></defs><g clip-path="url(#9db3ccf0aa)"><g clip-path="url(#65bbda4a07)"><path fill="#37474f" d="M 0.496094 0 L 134.503906 0 L 134.503906 134.007812 L 0.496094 134.007812 Z M 0.496094 0 " fill-opacity="1" fill-rule="nonzero"/></g></g><g clip-path="url(#ccadc88168)"><g clip-path="url(#3e194cb73c)"><path fill="#ffffff" d="M 3.820312 3.324219 L 131.179688 3.324219 L 131.179688 130.683594 L 3.820312 130.683594 Z M 3.820312 3.324219 " fill-opacity="1" fill-rule="nonzero"/></g></g><g clip-path="url(#cfec9fd888)"><g clip-path="url(#cdac396628)"><path fill="#ffdb80" d="M 3.820312 3.324219 L 56.691406 3.324219 L 56.691406 130.683594 L 3.820312 130.683594 Z M 3.820312 3.324219 " fill-opacity="1" fill-rule="nonzero"/></g></g><g clip-path="url(#78e301e00f)"><g clip-path="url(#855f5ee027)"><path fill="#fda082" d="M 77.320312 3.324219 L 131.179688 3.324219 L 131.179688 130.683594 L 77.320312 130.683594 Z M 77.320312 3.324219 " fill-opacity="1" fill-rule="nonzero"/></g></g><g clip-path="url(#461e20b04a)"><path fill="#8ed896" d="M 44.84375 3.324219 L 90.15625 3.324219 L 90.15625 130.683594 L 44.84375 130.683594 Z M 44.84375 3.324219 " fill-opacity="1" fill-rule="nonzero"/></g><path fill="#90a4ae" d="M 68.300781 74.066406 L 74.546875 67.824219 L 88.71875 81.996094 L 82.476562 88.238281 Z M 68.300781 74.066406 " fill-opacity="1" fill-rule="nonzero"/><path fill="#bbdefb" d="M 80.542969 50.445312 C 80.542969 51.414062 80.496094 52.382812 80.398438 53.347656 C 80.304688 54.3125 80.164062 55.269531 79.972656 56.21875 C 79.785156 57.171875 79.550781 58.109375 79.269531 59.039062 C 78.984375 59.964844 78.660156 60.875 78.289062 61.773438 C 77.917969 62.667969 77.503906 63.542969 77.046875 64.398438 C 76.589844 65.253906 76.09375 66.085938 75.554688 66.890625 C 75.015625 67.695312 74.4375 68.472656 73.824219 69.222656 C 73.207031 69.972656 72.558594 70.691406 71.871094 71.375 C 71.1875 72.0625 70.46875 72.710938 69.71875 73.328125 C 68.96875 73.941406 68.191406 74.519531 67.386719 75.058594 C 66.582031 75.597656 65.75 76.09375 64.894531 76.550781 C 64.039062 77.007812 63.164062 77.421875 62.269531 77.792969 C 61.375 78.164062 60.460938 78.488281 59.535156 78.769531 C 58.605469 79.054688 57.667969 79.289062 56.714844 79.476562 C 55.765625 79.667969 54.808594 79.808594 53.84375 79.902344 C 52.878906 80 51.910156 80.046875 50.941406 80.046875 C 49.972656 80.046875 49.003906 80 48.039062 79.902344 C 47.074219 79.808594 46.117188 79.667969 45.167969 79.476562 C 44.214844 79.289062 43.277344 79.054688 42.347656 78.769531 C 41.421875 78.488281 40.507812 78.164062 39.613281 77.792969 C 38.71875 77.421875 37.84375 77.007812 36.988281 76.550781 C 36.132812 76.09375 35.300781 75.597656 34.496094 75.058594 C 33.6875 74.519531 32.910156 73.941406 32.164062 73.328125 C 31.414062 72.710938 30.695312 72.0625 30.011719 71.375 C 29.324219 70.691406 28.675781 69.972656 28.058594 69.222656 C 27.445312 68.472656 26.867188 67.695312 26.328125 66.890625 C 25.789062 66.085938 25.292969 65.253906 24.835938 64.398438 C 24.378906 63.542969 23.964844 62.667969 23.59375 61.773438 C 23.222656 60.875 22.894531 59.964844 22.613281 59.039062 C 22.332031 58.109375 22.097656 57.171875 21.910156 56.21875 C 21.71875 55.269531 21.578125 54.3125 21.480469 53.347656 C 21.386719 52.382812 21.339844 51.414062 21.339844 50.445312 C 21.339844 49.476562 21.386719 48.507812 21.480469 47.542969 C 21.578125 46.578125 21.71875 45.621094 21.910156 44.667969 C 22.097656 43.71875 22.332031 42.78125 22.613281 41.851562 C 22.894531 40.925781 23.222656 40.011719 23.59375 39.117188 C 23.964844 38.222656 24.378906 37.347656 24.835938 36.492188 C 25.292969 35.636719 25.789062 34.804688 26.328125 34 C 26.867188 33.191406 27.445312 32.414062 28.058594 31.664062 C 28.675781 30.917969 29.324219 30.199219 30.011719 29.511719 C 30.695312 28.828125 31.414062 28.175781 32.164062 27.5625 C 32.910156 26.949219 33.6875 26.371094 34.496094 25.832031 C 35.300781 25.292969 36.132812 24.796875 36.988281 24.339844 C 37.84375 23.882812 38.71875 23.46875 39.613281 23.097656 C 40.507812 22.726562 41.421875 22.398438 42.347656 22.117188 C 43.277344 21.835938 44.214844 21.601562 45.167969 21.414062 C 46.117188 21.222656 47.074219 21.082031 48.039062 20.984375 C 49.003906 20.890625 49.972656 20.84375 50.941406 20.84375 C 51.910156 20.84375 52.878906 20.890625 53.84375 20.984375 C 54.808594 21.082031 55.765625 21.222656 56.714844 21.414062 C 57.667969 21.601562 58.605469 21.835938 59.535156 22.117188 C 60.460938 22.398438 61.375 22.726562 62.269531 23.097656 C 63.164062 23.46875 64.039062 23.882812 64.894531 24.339844 C 65.75 24.796875 66.582031 25.292969 67.386719 25.832031 C 68.191406 26.371094 68.96875 26.949219 69.71875 27.5625 C 70.46875 28.175781 71.1875 28.828125 71.871094 29.511719 C 72.558594 30.199219 73.207031 30.917969 73.824219 31.664062 C 74.4375 32.414062 75.015625 33.191406 75.554688 34 C 76.09375 34.804688 76.589844 35.636719 77.046875 36.492188 C 77.503906 37.347656 77.917969 38.222656 78.289062 39.117188 C 78.660156 40.011719 78.984375 40.925781 79.269531 41.851562 C 79.550781 42.78125 79.785156 43.71875 79.972656 44.667969 C 80.164062 45.621094 80.304688 46.578125 80.398438 47.542969 C 80.496094 48.507812 80.542969 49.476562 80.542969 50.445312 Z M 80.542969 50.445312 " fill-opacity="1" fill-rule="nonzero"/><path fill="#ffffff" d="M 50.941406 30.710938 C 60.808594 30.710938 69.84375 36.320312 74.207031 45.25 C 71.402344 32.371094 58.628906 24.269531 45.746094 27.179688 C 36.710938 29.152344 29.648438 36.214844 27.675781 45.25 C 32.039062 36.320312 41.074219 30.710938 50.941406 30.710938 Z M 50.941406 30.710938 " fill-opacity="1" fill-rule="nonzero"/><g clip-path="url(#ffa9bd17fa)"><path fill="#90a4ae" d="M 50.941406 84.71875 C 32.039062 84.71875 16.664062 69.347656 16.664062 50.445312 C 16.664062 31.542969 32.039062 16.167969 50.941406 16.167969 C 69.84375 16.167969 85.214844 31.542969 85.214844 50.445312 C 85.214844 69.347656 69.84375 84.71875 50.941406 84.71875 Z M 50.941406 22.402344 C 35.464844 22.402344 22.898438 34.96875 22.898438 50.445312 C 22.898438 65.921875 35.464844 78.488281 50.941406 78.488281 C 66.417969 78.488281 78.984375 65.921875 78.984375 50.445312 C 78.984375 34.96875 66.417969 22.402344 50.941406 22.402344 Z M 50.941406 22.402344 " fill-opacity="1" fill-rule="nonzero"/></g><g clip-path="url(#761c617c8d)"><path fill="#37474f" d="M 117.726562 105.597656 L 88.226562 79.007812 C 87.398438 78.28125 86.046875 78.28125 85.214844 79.109375 L 79.609375 84.71875 C 78.777344 85.550781 78.777344 86.902344 79.503906 87.730469 L 106.09375 117.230469 C 106.921875 118.164062 108.273438 118.164062 109.207031 117.4375 C 109.207031 117.4375 109.3125 117.332031 109.3125 117.332031 L 117.828125 108.816406 C 118.660156 107.882812 118.660156 106.53125 117.726562 105.597656 C 117.828125 105.699219 117.726562 105.597656 117.726562 105.597656 Z M 117.726562 105.597656 " fill-opacity="1" fill-rule="nonzero"/></g><path fill="#b0bec5" d="M 74.207031 80.359375 C 73.894531 80.359375 73.6875 80.148438 73.6875 79.839844 C 73.6875 79.734375 73.792969 79.527344 73.792969 79.421875 L 80.023438 73.191406 C 80.230469 72.984375 80.542969 72.984375 80.75 73.191406 C 80.957031 73.398438 80.957031 73.710938 80.75 73.917969 L 74.519531 80.148438 C 74.414062 80.253906 74.308594 80.359375 74.207031 80.359375 Z M 74.207031 80.359375 " fill-opacity="1" fill-rule="nonzero"/><path fill="#b0bec5" d="M 78.257812 85.445312 C 77.425781 85.445312 76.699219 84.71875 76.699219 83.890625 C 76.699219 83.472656 76.90625 83.058594 77.113281 82.746094 L 83.347656 76.515625 C 83.96875 75.890625 84.90625 75.890625 85.527344 76.515625 C 86.152344 77.136719 86.152344 78.074219 85.527344 78.695312 L 79.296875 84.925781 C 79.089844 85.34375 78.671875 85.445312 78.257812 85.445312 Z M 78.257812 85.445312 " fill-opacity="1" fill-rule="nonzero"/></svg>